<?xml version="1.0" encoding="UTF-8" standalone="no"?>
<!-- Created with Inkscape (http://www.inkscape.org/) -->

<svg
   xmlns:dc="http://purl.org/dc/elements/1.1/"
   xmlns:cc="http://creativecommons.org/ns#"
   xmlns:rdf="http://www.w3.org/1999/02/22-rdf-syntax-ns#"
   xmlns:svg="http://www.w3.org/2000/svg"
   xmlns="http://www.w3.org/2000/svg"
   xmlns:sodipodi="http://sodipodi.sourceforge.net/DTD/sodipodi-0.dtd"
   xmlns:inkscape="http://www.inkscape.org/namespaces/inkscape"
   width="210mm"
   height="297mm"
   viewBox="0 0 210 297"
   version="1.1"
   id="svg8759"
   inkscape:version="0.92.4 (5da689c313, 2019-01-14)"
   sodipodi:docname="logo.svg">
  <defs
     id="defs8753" />
  <sodipodi:namedview
     id="base"
     pagecolor="#ffffff"
     bordercolor="#666666"
     borderopacity="1.0"
     inkscape:pageopacity="0.0"
     inkscape:pageshadow="2"
     inkscape:zoom="3.959798"
     inkscape:cx="385.88576"
     inkscape:cy="811.4526"
     inkscape:document-units="mm"
     inkscape:current-layer="layer1"
     showgrid="false"
     inkscape:window-width="1920"
     inkscape:window-height="1017"
     inkscape:window-x="-8"
     inkscape:window-y="-8"
     inkscape:window-maximized="1" />
  <metadata
     id="metadata8756">
    <rdf:RDF>
      <cc:Work
         rdf:about="">
        <dc:format>image/svg+xml</dc:format>
        <dc:type
           rdf:resource="http://purl.org/dc/dcmitype/StillImage" />
        <dc:title></dc:title>
      </cc:Work>
    </rdf:RDF>
  </metadata>
  <g
     inkscape:label="Calque 1"
     inkscape:groupmode="layer"
     id="layer1">
    <path
       inkscape:connector-curvature="0"
       id="path5035"
       style="fill:#000000;fill-opacity:1;fill-rule:evenodd;stroke:none;stroke-width:0.35277775"
       d="m 89.736664,78.964986 c -0.17427,0.0998 -0.22437,0.15311 -0.5461,-0.0811 -0.56727,-0.4138 -0.97437,-0.98989 -1.01388,-1.70497 -0.68333,-0.037 -2.00978,0.42051 -2.14701,1.6062 0.41381,-0.14394 0.83785,-0.19474 1.27212,-0.15487 -1.03364,0.11712 -2.06375,0.6417 -2.75555,1.31162 1.3716,-0.92216 3.12985,-1.12077 4.71276,-0.70273 l -4.0894,2.34915 c -0.31997,0.18415 -0.6858,0.18415 -1.00471,0 -1.71309,-0.98355 0.3623,-2.05952 1.63865,-2.7305 0.042,-0.71014 0.50412,-1.24284 1.02129,-1.55963 l -0.82973,-0.0801 2.40136,-0.28575 c 0.009,-0.53905 0.013,-0.80822 0.013,-0.80822 -0.62089,-0.13088 -1.14229,-0.31926 -1.56316,-0.5655 0.58279,0.20285 1.04987,0.32808 1.40018,0.37571 -0.13476,-2.25037 -1.94945,-3.14713 -4.29401,-2.43593 0.17603,0.33196 0.55915,0.72143 1.1504,1.1684 -0.99518,-0.54257 -1.75824,-1.30422 -2.28952,-2.2853 -0.8509,1.76636 -1.15676,3.91584 -0.91758,6.44667 0.29351,-0.53729 0.44097,-0.80645 0.44097,-0.80645 -1.11019,-2.08351 1.50072,-1.98191 2.74074,-2.05564 l -0.81175,0.23812 c -0.30656,0.44909 -0.75812,0.84949 -1.35502,1.20051 -0.34043,0.87947 -0.37182,2.15759 -0.19402,3.35244 l -3.75074,-2.15476 c -0.31891,-0.1838 -0.50235,-0.49883 -0.50235,-0.86643 v -5.97252 c 0,-0.36724 0.18344,-0.68228 0.50235,-0.86537 2.35938,-1.35607 2.91606,-1.67252 4.19383,1.64606 0.17427,0.28399 0.37006,0.54681 0.58808,0.78811 l 0.1404,-0.0427 c 1.16029,-0.35172 2.55588,-0.41486 3.54683,0.39441 0.6798,0.55562 0.97684,1.37477 1.03011,2.22885 l 0.16616,0.0353 -0.002,0.17921 c -0.004,0.27023 -0.009,0.53904 -0.0138,0.80927 l -0.003,0.21519 -0.21661,-0.001 c 0.0413,0.90206 0.73272,1.49825 1.34126,1.81434" />
    <path
       inkscape:connector-curvature="0"
       id="path5043"
       style="fill:#000000;fill-opacity:1;fill-rule:evenodd;stroke:none;stroke-width:0.35277775"
       d="m 85.169494,67.911226 5.19783,2.98662 c 0.31997,0.18344 0.50236,0.49812 0.50236,0.86571 v 5.97253 c 0,0.36724 -0.18239,0.68227 -0.50236,0.86642 l -0.33725,0.19368 c -0.33796,-0.42122 -0.62971,-1.07738 -0.8756,-1.9685 0.22613,0.35666 0.48507,0.72496 0.86678,0.79939 -0.7359,-0.74789 -0.5962,-1.84009 -0.81245,-3.07093 l -0.75741,-0.0744 0.65934,-0.38524 c -0.10513,-0.41169 -0.26388,-0.83537 -0.51964,-1.26329 -0.18239,-0.30551 -0.41346,-0.60396 -0.68228,-0.89112 l -0.61947,0.60642 0.1143,-1.09361 c -0.85408,-0.75071 -1.95616,-1.39312 -3.09739,-1.83091 l -0.0215,1.42945 -0.67099,-1.66758 c -0.49247,-0.15063 -0.9853,-0.25964 -1.4605,-0.31926 l 2.01154,-1.15535 c 0.31891,-0.18344 0.68475,-0.18344 1.00471,0" />
  </g>
</svg>
